<svg xmlns="http://www.w3.org/2000/svg" viewBox="0 0 2048 682" role="img" aria-labelledby="title desc">
  <title id="title">onedotmint</title>
  <desc id="desc">A custom silver calligraphic wordmark with an original mint-dot orbit and restrained wave flourish.</desc>
  <defs>
    <linearGradient id="silver" x1="0" y1="0" x2="0" y2="1">
      <stop offset="0" stop-color="#ffffff"/>
      <stop offset="0.42" stop-color="#e8e8ea"/>
      <stop offset="0.72" stop-color="#a9a9ae"/>
      <stop offset="1" stop-color="#f5f5f6"/>
    </linearGradient>
    <linearGradient id="silverLine" x1="0" y1="0" x2="1" y2="0">
      <stop offset="0" stop-color="#717176"/>
      <stop offset="0.18" stop-color="#f3f3f4"/>
      <stop offset="0.54" stop-color="#c7c7cb"/>
      <stop offset="0.84" stop-color="#ffffff"/>
      <stop offset="1" stop-color="#8c8c91"/>
    </linearGradient>
    <radialGradient id="mintDot" cx="38%" cy="32%" r="68%">
      <stop offset="0" stop-color="#effff9"/>
      <stop offset="0.35" stop-color="#9ce6c8"/>
      <stop offset="1" stop-color="#3f9f7c"/>
    </radialGradient>
    <filter id="wordGlow" x="-15%" y="-25%" width="130%" height="150%">
      <feGaussianBlur in="SourceAlpha" stdDeviation="5" result="blur"/>
      <feFlood flood-color="#ffffff" flood-opacity="0.28" result="light"/>
      <feComposite in="light" in2="blur" operator="in" result="halo"/>
      <feMerge><feMergeNode in="halo"/><feMergeNode in="SourceGraphic"/></feMerge>
    </filter>
    <filter id="lineGlow" x="-15%" y="-80%" width="130%" height="260%">
      <feGaussianBlur stdDeviation="2" result="blur"/>
      <feMerge><feMergeNode in="blur"/><feMergeNode in="SourceGraphic"/></feMerge>
    </filter>
    <filter id="mintGlow" x="-200%" y="-200%" width="500%" height="500%">
      <feGaussianBlur stdDeviation="6" result="blur"/>
      <feMerge><feMergeNode in="blur"/><feMergeNode in="SourceGraphic"/></feMerge>
    </filter>
  </defs>

  <path d="M 360 230 C 315 183 317 126 370 102 C 426 76 497 91 527 132 C 548 161 537 195 500 218"
        fill="none" stroke="url(#silverLine)" stroke-width="4.2" stroke-linecap="round"
        opacity="0.82" filter="url(#lineGlow)"/>
  <circle cx="459" cy="93" r="7" fill="url(#mintDot)" filter="url(#mintGlow)"/>

  <path d="M 1709 285 L 1702 289 L 1686 293 L 1658 293 L 1657 292 L 1651 292 L 1650 291 L 1644 291 L 1643 290 L 1631 289 L 1620 286 L 1615 286 L 1613 284 L 1632 258 L 1647 240 L 1646 239 L 1644 240 L 1630 240 L 1622 249 L 1619 255 L 1615 259 L 1599 282 L 1572 278 L 1571 277 L 1564 277 L 1563 276 L 1543 276 L 1542 277 L 1530 278 L 1511 285 L 1501 292 L 1500 294 L 1501 295 L 1504 292 L 1516 285 L 1528 281 L 1540 280 L 1541 279 L 1565 280 L 1566 281 L 1590 284 L 1593 286 L 1591 289 L 1592 290 L 1568 324 L 1546 359 L 1537 370 L 1509 396 L 1498 404 L 1486 410 L 1477 410 L 1475 408 L 1474 404 L 1478 395 L 1484 386 L 1509 355 L 1517 341 L 1518 329 L 1513 323 L 1510 322 L 1498 323 L 1479 334 L 1462 348 L 1434 377 L 1433 375 L 1450 352 L 1461 333 L 1460 326 L 1456 322 L 1451 321 L 1446 323 L 1439 329 L 1431 339 L 1417 361 L 1390 388 L 1368 405 L 1357 410 L 1351 410 L 1347 405 L 1347 400 L 1351 390 L 1372 358 L 1396 327 L 1380 328 L 1358 357 L 1332 383 L 1317 396 L 1304 405 L 1293 410 L 1287 410 L 1283 406 L 1284 399 L 1292 387 L 1313 362 L 1324 346 L 1328 337 L 1328 329 L 1326 325 L 1319 321 L 1313 321 L 1306 323 L 1297 328 L 1283 339 L 1255 368 L 1254 366 L 1258 362 L 1268 347 L 1274 335 L 1274 325 L 1268 320 L 1258 320 L 1243 328 L 1229 339 L 1194 373 L 1193 371 L 1226 327 L 1225 321 L 1217 314 L 1211 323 L 1211 326 L 1209 330 L 1177 371 L 1150 410 L 1152 409 L 1166 409 L 1178 393 L 1226 346 L 1250 327 L 1252 327 L 1257 324 L 1262 324 L 1263 325 L 1258 328 L 1259 335 L 1256 339 L 1257 341 L 1225 387 L 1219 394 L 1211 406 L 1210 410 L 1223 410 L 1248 378 L 1290 337 L 1304 327 L 1309 325 L 1313 325 L 1316 327 L 1317 330 L 1315 332 L 1314 331 L 1311 334 L 1311 338 L 1307 343 L 1308 345 L 1290 368 L 1276 388 L 1273 396 L 1273 404 L 1275 408 L 1279 412 L 1282 413 L 1292 405 L 1309 405 L 1333 385 L 1346 372 L 1347 374 L 1341 383 L 1337 394 L 1337 403 L 1339 408 L 1347 413 L 1358 412 L 1372 405 L 1392 389 L 1423 358 L 1433 346 L 1435 342 L 1447 329 L 1448 331 L 1442 339 L 1441 342 L 1394 410 L 1409 410 L 1416 400 L 1433 381 L 1471 344 L 1489 330 L 1497 326 L 1504 325 L 1507 327 L 1507 329 L 1502 331 L 1504 335 L 1503 339 L 1477 372 L 1466 389 L 1463 397 L 1464 407 L 1469 412 L 1475 414 L 1481 414 L 1490 411 L 1498 407 L 1510 398 L 1536 373 L 1537 375 L 1532 384 L 1530 392 L 1527 398 L 1527 406 L 1530 414 L 1535 418 L 1547 419 L 1560 414 L 1575 404 L 1588 393 L 1609 372 L 1622 357 L 1622 355 L 1621 355 L 1606 372 L 1585 393 L 1563 410 L 1550 416 L 1542 416 L 1538 412 L 1537 409 L 1538 402 L 1542 391 L 1549 377 L 1583 325 L 1610 288 L 1616 290 L 1623 290 L 1624 291 L 1630 291 L 1631 292 L 1643 293 L 1644 294 L 1682 295 L 1683 294 L 1694 293 L 1703 290 L 1709 287 Z M 1338 272 L 1334 277 L 1326 281 L 1313 285 L 1299 286 L 1298 287 L 1267 286 L 1266 285 L 1258 285 L 1257 284 L 1250 284 L 1249 283 L 1226 280 L 1210 276 L 1209 275 L 1210 274 L 1206 273 L 1202 270 L 1199 270 L 1194 274 L 1193 273 L 1200 263 L 1227 229 L 1227 228 L 1222 228 L 1221 227 L 1222 226 L 1214 227 L 1211 230 L 1208 231 L 1202 237 L 1202 240 L 1199 245 L 1179 271 L 1167 270 L 1166 269 L 1158 269 L 1157 268 L 1128 268 L 1127 269 L 1113 271 L 1101 275 L 1094 279 L 1086 286 L 1085 288 L 1087 288 L 1096 280 L 1107 275 L 1115 273 L 1121 273 L 1122 272 L 1140 271 L 1141 272 L 1162 273 L 1167 275 L 1168 277 L 1167 282 L 1169 284 L 1162 293 L 1136 331 L 1117 347 L 1103 354 L 1093 357 L 1086 357 L 1084 358 L 1083 357 L 1087 350 L 1090 341 L 1090 330 L 1086 321 L 1081 317 L 1073 315 L 1064 317 L 1057 322 L 1043 327 L 1025 340 L 1017 348 L 1004 365 L 972 397 L 957 408 L 946 413 L 938 412 L 936 410 L 934 404 L 938 388 L 949 365 L 968 334 L 974 329 L 986 323 L 1013 305 L 1047 279 L 1061 267 L 1088 240 L 1101 224 L 1113 203 L 1115 196 L 1115 189 L 1114 186 L 1109 181 L 1106 180 L 1094 180 L 1079 185 L 1066 193 L 1054 202 L 1038 218 L 1023 235 L 999 266 L 990 280 L 979 294 L 978 297 L 958 326 L 957 325 L 958 327 L 957 328 L 950 321 L 939 318 L 928 319 L 908 327 L 896 335 L 881 350 L 874 360 L 849 384 L 830 398 L 810 408 L 803 410 L 790 410 L 787 409 L 782 404 L 780 399 L 780 392 L 783 382 L 787 374 L 804 370 L 807 368 L 822 363 L 843 352 L 851 346 L 858 339 L 860 333 L 862 331 L 862 325 L 857 320 L 851 318 L 837 319 L 824 323 L 816 327 L 798 340 L 783 356 L 777 365 L 747 394 L 728 407 L 718 410 L 715 409 L 712 406 L 712 400 L 715 394 L 745 355 L 753 342 L 756 328 L 751 320 L 749 319 L 741 319 L 735 321 L 715 333 L 690 355 L 674 372 L 673 370 L 695 339 L 700 326 L 699 322 L 694 319 L 687 319 L 680 321 L 665 331 L 655 341 L 651 347 L 646 351 L 633 356 L 622 357 L 621 356 L 625 349 L 628 340 L 628 329 L 625 322 L 619 317 L 616 316 L 605 316 L 598 319 L 596 321 L 588 323 L 578 328 L 575 331 L 569 334 L 552 351 L 540 368 L 533 384 L 532 398 L 536 408 L 542 412 L 545 413 L 556 413 L 564 411 L 574 406 L 591 393 L 612 371 L 619 360 L 631 359 L 646 353 L 652 349 L 672 329 L 681 324 L 688 323 L 689 324 L 687 326 L 681 328 L 677 335 L 678 339 L 671 348 L 671 352 L 630 409 L 630 410 L 646 410 L 650 403 L 673 376 L 705 345 L 718 334 L 727 328 L 735 324 L 742 324 L 743 325 L 739 326 L 737 330 L 738 334 L 736 337 L 736 341 L 737 342 L 735 345 L 734 344 L 731 347 L 732 349 L 715 371 L 703 390 L 701 396 L 702 407 L 705 410 L 711 413 L 719 413 L 733 407 L 749 395 L 771 374 L 772 377 L 768 386 L 768 397 L 773 407 L 778 411 L 783 413 L 788 413 L 789 414 L 801 413 L 814 409 L 834 398 L 864 373 L 865 376 L 863 379 L 860 389 L 860 402 L 862 406 L 867 411 L 872 413 L 879 413 L 893 407 L 900 402 L 921 382 L 933 368 L 934 370 L 929 379 L 925 394 L 925 404 L 927 410 L 931 414 L 936 416 L 944 416 L 956 411 L 970 401 L 999 373 L 1000 375 L 995 387 L 995 400 L 998 406 L 1003 411 L 1008 413 L 1020 413 L 1037 406 L 1048 398 L 1065 382 L 1082 360 L 1094 359 L 1108 354 L 1127 341 L 1128 343 L 1112 368 L 1101 392 L 1099 400 L 1099 417 L 1105 429 L 1113 437 L 1124 442 L 1137 443 L 1138 442 L 1142 442 L 1143 440 L 1127 440 L 1122 438 L 1115 432 L 1110 423 L 1109 408 L 1113 397 L 1113 394 L 1122 375 L 1138 349 L 1190 277 L 1193 280 L 1203 284 L 1209 284 L 1211 283 L 1210 282 L 1211 281 L 1230 285 L 1244 286 L 1252 288 L 1296 289 L 1297 288 L 1305 288 L 1306 287 L 1316 286 L 1328 282 L 1336 278 L 1338 276 Z M 933 367 L 934 366 L 935 368 L 934 369 Z M 1082 346 L 1083 347 L 1082 350 L 1081 349 Z M 1052 333 L 1053 334 L 1052 335 L 1052 341 L 1055 349 L 1064 356 L 1076 359 L 1077 360 L 1075 364 L 1065 377 L 1043 399 L 1032 406 L 1023 410 L 1013 410 L 1011 409 L 1006 402 L 1006 396 L 1009 385 L 1020 365 L 1031 351 L 1040 342 Z M 590 333 L 591 334 L 590 342 L 594 351 L 599 355 L 611 360 L 613 359 L 614 361 L 602 377 L 578 400 L 559 410 L 548 409 L 544 405 L 543 396 L 547 384 L 552 374 L 560 362 L 570 350 L 585 336 Z M 946 324 L 950 331 L 944 345 L 944 349 L 926 373 L 907 393 L 893 404 L 884 409 L 880 410 L 874 409 L 871 406 L 870 402 L 872 391 L 879 376 L 894 355 L 913 336 L 925 328 L 937 323 L 944 323 Z M 855 327 L 855 331 L 849 341 L 841 349 L 832 355 L 816 363 L 793 370 L 791 369 L 797 359 L 807 347 L 823 332 L 832 326 L 841 322 L 849 322 Z M 608 318 L 615 318 L 617 319 L 623 325 L 625 333 L 624 334 L 623 343 L 620 348 L 619 347 L 619 342 L 618 341 L 614 347 L 614 351 L 612 356 L 608 356 L 600 353 L 593 345 L 593 333 L 594 331 L 600 327 L 608 325 L 609 323 L 604 320 Z M 1070 317 L 1074 317 L 1080 319 L 1085 324 L 1087 329 L 1087 338 L 1083 347 L 1081 343 L 1079 345 L 1080 346 L 1080 351 L 1078 354 L 1079 353 L 1080 355 L 1078 357 L 1070 356 L 1063 353 L 1057 348 L 1055 344 L 1055 332 L 1058 329 L 1064 326 L 1070 325 L 1071 323 L 1065 320 Z M 1106 183 L 1111 189 L 1111 198 L 1109 204 L 1103 216 L 1085 240 L 1056 269 L 1038 284 L 1001 311 L 975 326 L 974 325 L 1007 277 L 1030 247 L 1055 218 L 1073 200 L 1087 189 L 1099 183 Z" fill="url(#silver)" fill-rule="evenodd" clip-rule="evenodd" filter="url(#wordGlow)"/>
  <path d="M 1395 327 L 1393 328 L 1383 328 L 1382 329 L 1380 329 L 1366 347 L 1361 355 L 1350 366 L 1350 367 L 1351 366 L 1352 368 L 1345 378 L 1340 388 L 1340 390 L 1338 394 L 1338 401 L 1342 408 L 1348 411 L 1351 411 L 1352 412 L 1358 411 L 1361 409 L 1363 409 L 1380 398 L 1394 385 L 1374 402 L 1368 405 L 1366 407 L 1362 409 L 1357 410 L 1356 411 L 1351 411 L 1346 406 L 1346 405 L 1346 407 L 1345 408 L 1341 404 L 1341 402 L 1340 401 L 1340 393 L 1341 392 L 1342 387 L 1350 371 L 1354 367 L 1354 366 L 1358 362 L 1358 361 L 1361 358 L 1364 353 L 1383 330 L 1389 330 L 1390 329 L 1393 329 Z M 1455 323 L 1453 322 L 1449 323 L 1444 326 L 1441 329 L 1441 330 L 1433 339 L 1426 351 L 1416 363 L 1416 364 L 1417 362 L 1423 356 L 1423 355 L 1431 346 L 1431 345 L 1438 337 L 1438 336 L 1449 325 L 1450 325 L 1451 326 L 1451 328 L 1448 332 L 1447 335 L 1443 340 L 1442 343 L 1434 353 L 1431 359 L 1428 362 L 1421 373 L 1415 380 L 1396 409 L 1397 408 L 1407 408 L 1411 405 L 1422 387 L 1426 383 L 1430 375 L 1433 372 L 1433 371 L 1443 358 L 1449 348 L 1452 345 L 1456 338 L 1459 335 L 1460 333 L 1460 330 L 1459 329 L 1459 327 Z M 1425 373 L 1426 374 L 1425 377 L 1421 379 L 1420 377 L 1424 373 Z M 1152 408 L 1165 406 L 1175 395 L 1175 394 L 1179 390 L 1179 389 L 1197 372 L 1198 372 L 1211 359 L 1212 359 L 1227 344 L 1228 344 L 1242 331 L 1243 331 L 1251 325 L 1258 322 L 1262 322 L 1265 325 L 1265 329 L 1261 337 L 1259 339 L 1255 346 L 1252 349 L 1250 353 L 1247 356 L 1245 360 L 1242 363 L 1240 367 L 1237 370 L 1231 380 L 1228 383 L 1224 390 L 1218 397 L 1217 400 L 1214 403 L 1211 408 L 1213 407 L 1218 407 L 1219 408 L 1222 408 L 1227 402 L 1227 401 L 1232 396 L 1234 392 L 1244 381 L 1244 380 L 1251 373 L 1252 373 L 1254 371 L 1254 370 L 1256 369 L 1282 343 L 1283 343 L 1296 331 L 1297 331 L 1302 327 L 1311 323 L 1314 323 L 1317 325 L 1318 327 L 1318 331 L 1317 332 L 1317 334 L 1310 345 L 1304 352 L 1304 353 L 1291 368 L 1291 369 L 1280 383 L 1274 396 L 1274 403 L 1276 407 L 1279 410 L 1285 411 L 1286 412 L 1291 412 L 1305 406 L 1318 396 L 1319 396 L 1347 370 L 1346 370 L 1324 391 L 1323 391 L 1319 395 L 1318 395 L 1314 399 L 1313 399 L 1307 404 L 1304 405 L 1302 407 L 1296 410 L 1293 410 L 1292 411 L 1287 411 L 1285 410 L 1282 406 L 1282 397 L 1284 395 L 1288 388 L 1295 381 L 1298 376 L 1304 370 L 1304 369 L 1307 366 L 1310 361 L 1315 356 L 1315 355 L 1321 348 L 1327 335 L 1327 329 L 1323 324 L 1319 322 L 1312 322 L 1311 323 L 1309 323 L 1302 326 L 1300 328 L 1297 329 L 1294 332 L 1289 335 L 1283 341 L 1282 341 L 1260 363 L 1260 364 L 1250 374 L 1249 374 L 1248 373 L 1249 370 L 1256 361 L 1258 357 L 1261 354 L 1261 353 L 1265 348 L 1266 345 L 1272 337 L 1272 335 L 1273 334 L 1273 326 L 1270 322 L 1268 321 L 1258 321 L 1249 325 L 1247 327 L 1243 329 L 1234 337 L 1233 337 L 1211 358 L 1210 358 L 1185 383 L 1184 381 L 1186 379 L 1186 377 L 1192 370 L 1194 366 L 1198 362 L 1198 361 L 1206 351 L 1206 350 L 1213 342 L 1214 339 L 1217 336 L 1217 335 L 1221 331 L 1221 330 L 1224 327 L 1225 327 L 1225 324 L 1224 322 L 1219 319 L 1217 319 L 1211 329 L 1207 333 L 1207 334 L 1204 337 L 1201 342 L 1197 346 L 1195 350 L 1185 362 L 1180 370 L 1176 374 L 1170 384 L 1167 387 L 1167 388 L 1164 391 L 1157 402 Z M 1337 274 L 1337 275 L 1332 279 L 1328 281 L 1326 281 L 1323 283 L 1318 284 L 1320 284 L 1321 283 L 1323 283 L 1324 282 L 1326 282 L 1329 280 L 1333 279 L 1337 276 Z M 1694 292 L 1691 292 L 1690 293 L 1684 293 L 1683 294 L 1660 294 L 1659 293 L 1652 293 L 1651 292 L 1638 291 L 1637 290 L 1632 290 L 1631 289 L 1626 289 L 1625 288 L 1621 288 L 1620 287 L 1615 287 L 1614 286 L 1612 286 L 1611 285 L 1612 282 L 1616 278 L 1618 274 L 1623 269 L 1623 268 L 1629 261 L 1631 257 L 1635 253 L 1637 249 L 1646 240 L 1644 241 L 1631 241 L 1626 246 L 1621 254 L 1617 258 L 1617 259 L 1614 262 L 1607 273 L 1599 283 L 1597 283 L 1596 282 L 1591 282 L 1590 281 L 1585 281 L 1584 280 L 1579 280 L 1578 279 L 1573 279 L 1572 278 L 1566 278 L 1565 277 L 1541 277 L 1540 278 L 1529 279 L 1528 280 L 1517 283 L 1511 286 L 1509 288 L 1506 289 L 1501 293 L 1501 294 L 1510 287 L 1514 285 L 1516 285 L 1519 283 L 1521 283 L 1525 281 L 1528 281 L 1529 280 L 1542 279 L 1543 278 L 1563 279 L 1564 280 L 1573 280 L 1574 281 L 1579 281 L 1580 282 L 1585 282 L 1586 283 L 1593 283 L 1594 284 L 1597 284 L 1598 285 L 1588 297 L 1579 311 L 1576 314 L 1576 315 L 1562 335 L 1561 338 L 1558 341 L 1558 342 L 1552 350 L 1551 353 L 1549 355 L 1545 362 L 1529 379 L 1528 379 L 1516 391 L 1515 391 L 1501 403 L 1495 406 L 1493 408 L 1491 408 L 1485 411 L 1477 411 L 1473 406 L 1473 402 L 1478 390 L 1487 380 L 1489 376 L 1493 372 L 1496 367 L 1507 355 L 1508 352 L 1517 339 L 1517 335 L 1518 334 L 1517 333 L 1517 329 L 1513 324 L 1511 324 L 1510 323 L 1501 323 L 1500 324 L 1498 324 L 1495 326 L 1493 326 L 1491 328 L 1488 329 L 1486 331 L 1482 333 L 1479 336 L 1474 339 L 1468 345 L 1467 345 L 1453 359 L 1452 359 L 1426 386 L 1428 385 L 1460 353 L 1461 353 L 1472 342 L 1473 342 L 1483 333 L 1497 325 L 1499 325 L 1500 324 L 1505 324 L 1508 327 L 1508 331 L 1507 332 L 1506 336 L 1504 338 L 1503 341 L 1494 352 L 1494 353 L 1485 363 L 1485 364 L 1479 371 L 1477 375 L 1474 378 L 1465 394 L 1464 401 L 1465 402 L 1465 405 L 1466 407 L 1469 410 L 1473 412 L 1484 412 L 1490 409 L 1492 409 L 1494 407 L 1499 405 L 1502 402 L 1507 399 L 1513 393 L 1514 393 L 1520 387 L 1521 387 L 1539 369 L 1540 371 L 1537 377 L 1535 379 L 1535 381 L 1533 384 L 1533 386 L 1530 393 L 1530 396 L 1529 397 L 1529 406 L 1530 407 L 1530 410 L 1532 414 L 1537 417 L 1540 417 L 1541 418 L 1547 418 L 1548 417 L 1554 416 L 1560 413 L 1562 411 L 1572 405 L 1576 401 L 1577 401 L 1581 397 L 1582 397 L 1604 376 L 1604 375 L 1621 357 L 1621 356 L 1608 370 L 1608 371 L 1587 392 L 1586 392 L 1573 404 L 1572 404 L 1561 412 L 1549 417 L 1543 417 L 1537 412 L 1537 410 L 1536 409 L 1536 403 L 1537 402 L 1540 391 L 1547 377 L 1549 375 L 1550 372 L 1554 367 L 1557 360 L 1564 351 L 1567 345 L 1575 335 L 1590 312 L 1596 305 L 1597 302 L 1602 297 L 1609 286 L 1611 287 L 1614 287 L 1615 288 L 1624 289 L 1625 290 L 1630 290 L 1631 291 L 1636 291 L 1637 292 L 1643 292 L 1644 293 L 1652 293 L 1653 294 L 1669 294 L 1670 295 L 1672 295 L 1673 294 L 1684 294 L 1685 293 L 1690 293 L 1691 292 Z M 1226 229 L 1221 229 L 1220 230 L 1212 230 L 1208 234 L 1208 235 L 1205 238 L 1202 243 L 1198 247 L 1195 252 L 1191 256 L 1191 257 L 1179 272 L 1173 272 L 1172 271 L 1167 271 L 1166 270 L 1158 270 L 1157 269 L 1128 269 L 1127 270 L 1121 270 L 1120 271 L 1113 272 L 1112 273 L 1106 274 L 1103 276 L 1101 276 L 1094 280 L 1087 286 L 1087 287 L 1092 282 L 1105 275 L 1107 275 L 1111 273 L 1114 273 L 1115 272 L 1127 271 L 1128 270 L 1144 270 L 1145 271 L 1156 271 L 1157 272 L 1174 273 L 1177 275 L 1167 288 L 1165 292 L 1156 303 L 1150 313 L 1147 316 L 1147 317 L 1137 330 L 1135 334 L 1130 338 L 1131 337 L 1132 339 L 1130 341 L 1130 342 L 1126 347 L 1125 350 L 1121 355 L 1120 358 L 1116 363 L 1104 387 L 1104 389 L 1102 393 L 1102 396 L 1101 397 L 1101 402 L 1100 403 L 1100 414 L 1108 431 L 1114 436 L 1118 437 L 1121 439 L 1126 440 L 1127 441 L 1134 441 L 1127 441 L 1126 440 L 1124 440 L 1122 438 L 1118 436 L 1114 432 L 1109 423 L 1109 421 L 1108 420 L 1108 406 L 1109 405 L 1109 401 L 1111 397 L 1111 394 L 1113 391 L 1115 384 L 1117 382 L 1120 375 L 1122 373 L 1127 363 L 1131 358 L 1132 355 L 1134 353 L 1138 346 L 1141 343 L 1143 339 L 1146 336 L 1150 329 L 1161 315 L 1163 311 L 1166 308 L 1166 307 L 1176 294 L 1178 290 L 1182 286 L 1184 282 L 1190 276 L 1192 276 L 1193 277 L 1197 277 L 1198 278 L 1203 278 L 1204 279 L 1209 279 L 1210 280 L 1214 280 L 1215 281 L 1220 281 L 1221 282 L 1225 282 L 1226 283 L 1231 283 L 1232 284 L 1246 285 L 1247 286 L 1256 286 L 1257 287 L 1271 287 L 1272 288 L 1294 288 L 1280 288 L 1279 287 L 1268 287 L 1267 286 L 1251 285 L 1250 284 L 1245 284 L 1244 283 L 1239 283 L 1238 282 L 1233 282 L 1232 281 L 1221 280 L 1220 279 L 1216 279 L 1215 278 L 1212 278 L 1211 277 L 1206 277 L 1205 276 L 1200 276 L 1199 275 L 1192 275 L 1191 273 L 1197 266 L 1199 262 L 1202 259 L 1202 258 L 1205 255 L 1208 250 L 1212 246 L 1217 238 L 1222 233 L 1222 232 Z M 1113 187 L 1109 182 L 1107 181 L 1104 181 L 1103 180 L 1098 180 L 1097 181 L 1089 182 L 1071 191 L 1062 198 L 1061 198 L 1057 202 L 1056 202 L 1026 233 L 1026 234 L 1021 239 L 1018 244 L 1010 253 L 1007 258 L 1003 262 L 999 269 L 996 272 L 987 286 L 979 296 L 978 299 L 973 305 L 972 308 L 969 311 L 968 314 L 960 325 L 959 328 L 956 331 L 955 330 L 954 326 L 950 322 L 946 321 L 945 320 L 930 320 L 929 321 L 922 322 L 907 329 L 905 331 L 898 335 L 892 341 L 891 341 L 880 353 L 880 354 L 875 359 L 875 360 L 849 385 L 848 385 L 845 388 L 844 388 L 841 391 L 840 391 L 837 394 L 836 394 L 828 400 L 812 408 L 810 408 L 806 410 L 803 410 L 802 411 L 790 411 L 789 410 L 787 410 L 783 407 L 779 399 L 779 388 L 780 387 L 780 384 L 782 381 L 782 379 L 785 374 L 785 372 L 791 365 L 796 357 L 818 334 L 826 329 L 829 326 L 837 322 L 840 322 L 841 321 L 845 321 L 847 320 L 848 321 L 851 321 L 855 325 L 856 330 L 851 340 L 843 348 L 842 348 L 838 352 L 837 352 L 832 356 L 815 364 L 813 364 L 807 367 L 804 367 L 800 369 L 797 369 L 793 371 L 790 371 L 790 372 L 792 372 L 793 371 L 797 371 L 798 370 L 812 366 L 820 362 L 822 362 L 832 357 L 839 352 L 842 351 L 845 348 L 850 345 L 858 336 L 859 334 L 859 330 L 860 329 L 859 327 L 859 324 L 854 320 L 850 320 L 849 319 L 837 320 L 833 322 L 827 323 L 810 332 L 807 335 L 802 338 L 786 354 L 786 355 L 782 359 L 782 360 L 778 364 L 778 365 L 773 370 L 772 370 L 769 373 L 769 374 L 748 394 L 747 394 L 739 401 L 738 401 L 733 405 L 730 406 L 728 408 L 726 408 L 723 410 L 715 410 L 711 406 L 711 399 L 715 391 L 722 382 L 724 378 L 729 373 L 729 372 L 733 368 L 736 363 L 747 350 L 752 340 L 753 334 L 754 333 L 754 327 L 750 322 L 748 321 L 745 321 L 744 320 L 743 321 L 738 321 L 727 326 L 725 328 L 721 330 L 718 333 L 717 333 L 714 336 L 709 339 L 704 344 L 703 344 L 664 383 L 663 381 L 666 378 L 674 365 L 677 362 L 690 342 L 693 339 L 696 332 L 696 329 L 698 326 L 697 323 L 692 320 L 687 320 L 686 321 L 680 322 L 674 325 L 666 332 L 665 332 L 658 339 L 658 340 L 656 341 L 656 342 L 649 350 L 636 356 L 633 356 L 632 357 L 629 357 L 628 358 L 621 358 L 620 356 L 622 353 L 622 351 L 625 346 L 625 344 L 627 340 L 627 328 L 624 322 L 619 318 L 617 318 L 613 316 L 608 316 L 607 317 L 600 319 L 597 322 L 589 324 L 577 330 L 575 332 L 571 334 L 566 339 L 565 339 L 555 349 L 555 350 L 551 354 L 549 358 L 545 362 L 544 365 L 542 367 L 541 370 L 538 374 L 538 376 L 536 379 L 536 381 L 534 385 L 534 390 L 533 391 L 533 397 L 534 398 L 534 401 L 540 409 L 547 412 L 556 412 L 557 411 L 560 411 L 561 410 L 563 410 L 566 408 L 570 407 L 572 405 L 575 404 L 578 401 L 582 399 L 589 392 L 590 392 L 605 377 L 605 376 L 611 370 L 616 362 L 619 359 L 626 359 L 627 358 L 631 358 L 632 357 L 640 355 L 646 352 L 648 350 L 649 350 L 657 342 L 658 340 L 659 340 L 673 327 L 683 322 L 689 322 L 690 323 L 690 325 L 688 327 L 686 332 L 684 334 L 678 344 L 675 347 L 673 351 L 670 354 L 666 361 L 662 365 L 660 369 L 657 372 L 656 375 L 646 388 L 644 392 L 641 395 L 635 405 L 631 409 L 633 409 L 637 407 L 646 407 L 646 406 L 648 404 L 650 400 L 654 396 L 656 392 L 706 343 L 707 343 L 718 333 L 719 333 L 727 327 L 735 323 L 738 323 L 740 322 L 741 323 L 743 323 L 745 326 L 745 331 L 741 339 L 714 374 L 714 375 L 708 383 L 707 386 L 705 388 L 705 390 L 703 393 L 703 395 L 702 396 L 702 403 L 704 407 L 708 410 L 710 410 L 711 411 L 715 411 L 716 412 L 717 411 L 721 411 L 722 410 L 724 410 L 731 407 L 733 405 L 740 401 L 743 398 L 744 398 L 778 365 L 779 365 L 780 366 L 776 370 L 772 378 L 772 380 L 770 384 L 770 388 L 769 389 L 769 395 L 770 396 L 772 403 L 780 410 L 782 410 L 786 412 L 801 412 L 802 411 L 805 411 L 806 410 L 811 409 L 814 407 L 816 407 L 835 396 L 847 386 L 848 386 L 855 379 L 856 379 L 870 365 L 871 367 L 868 373 L 866 375 L 865 379 L 863 382 L 863 385 L 862 386 L 862 389 L 861 390 L 861 399 L 864 406 L 867 409 L 871 411 L 875 411 L 876 412 L 878 412 L 879 411 L 882 411 L 883 410 L 887 409 L 889 407 L 892 406 L 894 404 L 898 402 L 902 398 L 903 398 L 926 375 L 926 374 L 930 370 L 930 369 L 939 359 L 940 361 L 938 363 L 938 365 L 936 367 L 933 373 L 933 375 L 930 380 L 930 382 L 928 386 L 928 389 L 927 390 L 927 393 L 926 394 L 926 403 L 929 410 L 931 412 L 935 414 L 940 414 L 941 415 L 943 415 L 944 414 L 950 413 L 954 411 L 956 409 L 959 408 L 965 403 L 966 403 L 970 399 L 971 399 L 980 390 L 981 390 L 996 375 L 996 374 L 1002 368 L 1004 367 L 1005 369 L 999 379 L 999 381 L 997 385 L 997 389 L 996 390 L 996 398 L 999 404 L 1004 409 L 1008 410 L 1009 411 L 1012 411 L 1013 412 L 1019 412 L 1020 411 L 1023 411 L 1024 410 L 1029 409 L 1041 402 L 1049 395 L 1050 395 L 1059 386 L 1060 386 L 1061 384 L 1073 371 L 1073 370 L 1076 367 L 1081 359 L 1094 358 L 1095 357 L 1103 355 L 1106 353 L 1108 353 L 1121 345 L 1128 339 L 1115 349 L 1105 354 L 1103 354 L 1097 357 L 1093 357 L 1092 358 L 1083 358 L 1082 356 L 1087 347 L 1088 341 L 1089 340 L 1089 329 L 1088 328 L 1088 326 L 1085 321 L 1079 317 L 1076 317 L 1075 316 L 1070 316 L 1069 317 L 1066 317 L 1060 322 L 1052 324 L 1049 326 L 1047 326 L 1043 328 L 1041 330 L 1034 334 L 1031 337 L 1030 337 L 1014 353 L 1014 354 L 1006 363 L 1006 364 L 974 396 L 973 396 L 968 401 L 967 401 L 960 407 L 957 408 L 955 410 L 951 412 L 945 413 L 944 414 L 941 414 L 940 413 L 938 413 L 935 410 L 934 406 L 933 405 L 933 400 L 934 399 L 934 394 L 935 393 L 936 388 L 940 381 L 940 379 L 945 369 L 947 367 L 951 358 L 955 353 L 956 350 L 958 348 L 959 345 L 961 343 L 967 333 L 970 330 L 981 325 L 986 321 L 994 317 L 1003 310 L 1010 306 L 1013 303 L 1023 297 L 1027 293 L 1028 293 L 1041 282 L 1042 282 L 1053 272 L 1054 272 L 1061 265 L 1062 265 L 1085 242 L 1085 241 L 1091 235 L 1091 234 L 1099 225 L 1099 224 L 1105 216 L 1112 202 L 1112 200 L 1114 196 L 1114 190 L 1113 189 Z M 592 331 L 593 332 L 591 336 L 591 343 L 595 351 L 596 351 L 601 355 L 603 355 L 606 357 L 614 359 L 615 361 L 609 368 L 609 369 L 603 376 L 603 377 L 584 396 L 583 396 L 575 403 L 564 409 L 562 409 L 558 411 L 550 411 L 548 410 L 543 405 L 542 397 L 543 396 L 543 390 L 548 380 L 549 376 L 551 374 L 552 371 L 554 369 L 558 362 L 565 354 L 565 353 L 584 335 L 585 335 L 590 331 Z M 948 323 L 952 327 L 954 335 L 945 350 L 935 362 L 932 367 L 927 372 L 927 373 L 909 392 L 908 392 L 897 402 L 886 409 L 880 410 L 879 411 L 874 410 L 871 407 L 870 403 L 869 402 L 869 394 L 876 377 L 878 375 L 884 365 L 891 357 L 891 356 L 905 341 L 906 341 L 911 336 L 912 336 L 915 333 L 916 333 L 924 327 L 936 322 L 946 322 Z M 606 317 L 616 317 L 618 318 L 623 323 L 625 327 L 625 339 L 624 340 L 624 343 L 622 346 L 622 348 L 618 356 L 616 358 L 614 358 L 613 357 L 609 357 L 608 356 L 605 356 L 604 355 L 600 354 L 594 348 L 592 344 L 592 333 L 593 332 L 592 331 L 597 327 L 599 327 L 604 324 L 608 324 L 608 323 L 606 322 L 601 322 L 600 321 L 603 318 L 605 318 Z M 1082 319 L 1086 324 L 1087 328 L 1088 329 L 1088 338 L 1087 339 L 1087 342 L 1085 345 L 1085 347 L 1079 358 L 1071 357 L 1070 356 L 1065 355 L 1060 352 L 1057 349 L 1054 343 L 1054 333 L 1053 334 L 1053 342 L 1054 343 L 1055 347 L 1061 353 L 1067 356 L 1069 356 L 1073 358 L 1077 358 L 1078 359 L 1077 362 L 1070 371 L 1070 372 L 1053 391 L 1052 391 L 1045 398 L 1044 398 L 1037 404 L 1034 405 L 1032 407 L 1028 409 L 1026 409 L 1022 411 L 1013 411 L 1011 410 L 1007 406 L 1005 402 L 1005 391 L 1006 390 L 1008 382 L 1010 379 L 1010 377 L 1012 375 L 1013 372 L 1015 370 L 1018 364 L 1025 356 L 1028 351 L 1043 337 L 1044 337 L 1047 334 L 1050 333 L 1052 331 L 1055 330 L 1058 326 L 1061 326 L 1062 325 L 1065 325 L 1066 324 L 1070 324 L 1070 323 L 1068 323 L 1067 322 L 1063 322 L 1062 321 L 1064 319 L 1071 316 L 1078 317 Z M 1108 183 L 1110 185 L 1112 189 L 1112 198 L 1111 199 L 1111 201 L 1102 219 L 1095 228 L 1095 229 L 1086 239 L 1086 240 L 1057 269 L 1056 269 L 1049 276 L 1044 279 L 1034 288 L 1033 288 L 1026 294 L 1022 296 L 1014 303 L 1013 303 L 990 319 L 985 321 L 983 323 L 978 325 L 976 327 L 972 328 L 971 327 L 972 325 L 974 323 L 984 307 L 987 304 L 988 301 L 991 298 L 997 288 L 1001 284 L 1005 277 L 1008 274 L 1010 270 L 1014 266 L 1014 265 L 1028 248 L 1028 247 L 1034 241 L 1034 240 L 1046 227 L 1046 226 L 1056 216 L 1056 215 L 1072 199 L 1073 199 L 1080 192 L 1081 192 L 1089 186 L 1097 182 L 1106 182 Z" fill="#ffffff" fill-opacity="0.24" fill-rule="evenodd" clip-rule="evenodd"/>

  <circle cx="1407" cy="298" r="11.5" fill="url(#mintDot)" filter="url(#mintGlow)"/>
  <circle cx="1403.5" cy="294.5" r="3.1" fill="#f5fffb" opacity="0.9"/>

  <path d="M 430 468 C 625 538 886 527 1108 480 C 1344 430 1587 429 1808 472 C 1875 485 1920 480 1954 455"
        fill="none" stroke="url(#silverLine)" stroke-width="5.2" stroke-linecap="round"
        filter="url(#lineGlow)"/>
  <path d="M 306 505 C 595 640 951 594 1216 531 C 1468 471 1711 502 1907 559"
        fill="none" stroke="#80cdb0" stroke-opacity="0.13" stroke-width="3.2" stroke-linecap="round"/>
  <ellipse cx="1038" cy="471" rx="9" ry="2.4" fill="#ffffff" opacity="0.42" filter="url(#lineGlow)"/>
</svg>
